<svg xmlns="http://www.w3.org/2000/svg" version="1.1" xmlns:xlink="http://www.w3.org/1999/xlink" xmlns:svgjs="http://svgjs.dev/svgjs" width="1500" height="1500" viewBox="0 0 1500 1500"><rect width="1500" height="1500" fill="#ffffff"></rect><g transform="matrix(0.6666666666666666,0,0,0.6666666666666666,249.39393939393938,438.5856950067477)"><svg viewBox="0 0 396 247" data-background-color="#ffffff" preserveAspectRatio="xMidYMid meet" height="935" width="1500" xmlns="http://www.w3.org/2000/svg" xmlns:xlink="http://www.w3.org/1999/xlink"><g id="tight-bounds" transform="matrix(1,0,0,1,0.2400000000000091,-0.09999999999999432)"><svg viewBox="0 0 395.52 247.2" height="247.2" width="395.52"><g><svg></svg></g><g><svg viewBox="0 0 395.52 247.2" height="247.2" width="395.52"><g><path d="M55.039 247.2l26.403-45.732 1.976 0-25.361 43.927h279.406l-25.361-43.927 1.976 0 26.403 45.732zM197.76 0l26.403 45.732-1.976 0-24.427-42.309-24.427 42.309-1.976 0z" fill="#ed2647" fill-rule="nonzero" stroke="none" stroke-width="1" stroke-linecap="butt" stroke-linejoin="miter" stroke-miterlimit="10" stroke-dasharray="" stroke-dashoffset="0" font-family="none" font-weight="none" font-size="none" text-anchor="none" style="mix-blend-mode: normal" data-fill-palette-color="tertiary"></path></g><g transform="matrix(1,0,0,1,97.22644248606598,67.97999999999999)"><svg viewBox="0 0 201.06711502786803 111.24" height="111.24" width="201.06711502786803"><g><svg viewBox="0 0 395.52 218.82068976770216" height="111.24" width="201.06711502786803"><g transform="matrix(1,0,0,1,0,161.8044814091316)"><svg viewBox="0 0 395.52 57.016208358570566" height="57.016208358570566" width="395.52"><g id="textblocktransform"><svg viewBox="0 0 395.52 57.016208358570566" height="57.016208358570566" width="395.52" id="textblock"><g><svg viewBox="0 0 395.52 57.016208358570566" height="57.016208358570566" width="395.52"><g transform="matrix(1,0,0,1,0,0)"><svg width="395.52" viewBox="1.05 -35.35 247.63 35.7" height="57.016208358570566" data-palette-color="#f43f5e"><path d="M1.05-8.6L8.6-10.3Q8.55-8.85 9.18-7.9 9.8-6.95 10.95-6.48 12.1-6 13.7-6L13.7-6Q16.35-6 17.95-7.15 19.55-8.3 19.85-10L19.85-10Q20.15-11.4 19.48-12.28 18.8-13.15 17.43-13.75 16.05-14.35 14.2-14.95L14.2-14.95Q12.25-15.5 10.4-16.23 8.55-16.95 7.1-18.05 5.65-19.15 5-20.88 4.35-22.6 4.95-25.2L4.95-25.2Q5.55-28.45 7.65-30.73 9.75-33 12.8-34.18 15.85-35.35 19.55-35.35L19.55-35.35Q22.8-35.35 25.15-34.43 27.5-33.5 28.85-31.68 30.2-29.85 30.4-27.2L30.4-27.2 23-25.65Q22.95-26.75 22.33-27.53 21.7-28.3 20.68-28.68 19.65-29.05 18.5-29.1L18.5-29.1Q17.15-29.1 15.95-28.65 14.75-28.2 13.9-27.35 13.05-26.5 12.8-25.4L12.8-25.4Q12.55-24.15 13.18-23.38 13.8-22.6 15.03-22.05 16.25-21.5 17.8-20.95L17.8-20.95Q19.7-20.3 21.7-19.55 23.7-18.8 25.25-17.63 26.8-16.45 27.53-14.63 28.25-12.8 27.7-10.1L27.7-10.1Q27.15-7.15 25.28-4.8 23.4-2.45 20.3-1.05 17.2 0.35 12.9 0.35L12.9 0.35Q9.3 0.35 6.65-0.7 4-1.75 2.55-3.75 1.1-5.75 1.05-8.6L1.05-8.6ZM44.65 0L51.65-35 59.34-35 52.34 0 44.65 0ZM84.44-21.3L80.19 0 72.49 0 79.49-35 88.44-35 93.84-10.05 109.24-35 118.24-35 111.24 0 103.49 0 107.74-21.3 94.94 0 88.74 0 84.44-21.3ZM156.89-24.7L156.89-24.7Q157.14-25.95 156.74-26.83 156.34-27.7 155.34-28.13 154.34-28.55 152.84-28.55L152.84-28.55 144.79-28.55 143.24-20.85 151.24-20.85Q153.54-20.85 155.01-21.8 156.49-22.75 156.89-24.7ZM149.09 0L131.39 0 138.39-35 155.49-35Q159.09-35 161.36-33.83 163.64-32.65 164.54-30.58 165.44-28.5 164.94-25.8L164.94-25.8Q164.44-23.45 163.26-21.88 162.09-20.3 160.39-19.38 158.69-18.45 156.64-18.1L156.64-18.1 156.54-17.7Q160.04-17.3 161.61-15.23 163.19-13.15 162.49-9.5L162.49-9.5Q161.94-6.7 160.16-4.55 158.39-2.4 155.59-1.2 152.79 0 149.09 0L149.09 0ZM142.04-14.7L140.39-6.45 149.14-6.45Q151.49-6.45 153.01-7.5 154.54-8.55 154.94-10.55L154.94-10.55Q155.34-12.65 154.16-13.68 152.99-14.7 150.64-14.7L150.64-14.7 142.04-14.7ZM212.13-35L210.78-28.55 193.13-28.55 191.58-20.8 204.78-20.8 203.58-14.7 190.33-14.7 188.73-6.45 206.43-6.45 205.13 0 179.73 0 186.73-35 212.13-35ZM231.28-35L238.98-35 233.28-6.45 248.68-6.45 247.38 0 224.28 0 231.28-35Z" opacity="1" transform="matrix(1,0,0,1,0,0)" fill="#f43f5e" class="wordmark-text-0" data-fill-palette-color="primary" id="text-0"></path></svg></g></svg></g></svg></g></svg></g><g transform="matrix(1,0,0,1,130.3179176998921,0)"><svg viewBox="0 0 134.8841646002158 134.8841646002158" height="134.8841646002158" width="134.8841646002158"><g><svg></svg></g><g id="icon-0"><svg viewBox="0 0 134.8841646002158 134.8841646002158" height="134.8841646002158" width="134.8841646002158"><g><path d="M0 67.442c0-37.247 30.195-67.442 67.442-67.442 37.247 0 67.442 30.195 67.442 67.442 0 37.247-30.195 67.442-67.442 67.442-37.247 0-67.442-30.195-67.442-67.442zM67.442 129.742c34.408 0 62.3-27.893 62.3-62.3 0-34.408-27.893-62.3-62.3-62.3-34.408 0-62.3 27.893-62.3 62.3 0 34.408 27.893 62.3 62.3 62.3z" data-fill-palette-color="accent" fill="#f43f5e" stroke="transparent"></path><ellipse rx="66.76766147710681" ry="66.76766147710681" cx="67.4420823001079" cy="67.4420823001079" fill="#f43f5e" stroke="transparent" stroke-width="0" fill-opacity="1" data-fill-palette-color="accent"></ellipse></g><g transform="matrix(1,0,0,1,47.52517743118496,32.031070044242334)"><svg viewBox="0 0 39.83380973784589 70.82202451173113" height="70.82202451173113" width="39.83380973784589"><g><svg xmlns="http://www.w3.org/2000/svg" xmlns:xlink="http://www.w3.org/1999/xlink" version="1.1" x="0" y="0" viewBox="38.144605035003075 28.817672358718987 24.74739825554714 43.99932764128102" enable-background="new 0 0 100 100" xml:space="preserve" height="70.82202451173113" width="39.83380973784589" class="icon-cg-0" data-fill-palette-color="quaternary" id="cg-0"><path d="M62.313 28.91c-0.354-0.164-0.771-0.106-1.067 0.146l-22.75 19.333c-0.213 0.181-0.34 0.443-0.351 0.722-0.004 0.109 0.023 0.212 0.053 0.315h2.635l-0.215-0.215 20.272-17.228c-0.014 7.147-0.06 29.939-0.075 37.425L43.822 52.415h-2.829l20.109 20.109c0.191 0.191 0.447 0.293 0.707 0.293 0.129 0 0.258-0.025 0.382-0.076 0.374-0.154 0.617-0.518 0.618-0.922 0 0 0.083-41.668 0.083-42.002C62.893 29.428 62.666 29.073 62.313 28.91z" fill="#ffffff" data-fill-palette-color="quaternary"></path></svg></g></svg></g></svg></g></svg></g><g></g></svg></g></svg></g></svg></g><defs></defs></svg><rect width="395.52" height="247.2" fill="none" stroke="none" visibility="hidden"></rect></g></svg></g></svg>